<svg xmlns="http://www.w3.org/2000/svg"
     viewBox="0 0 148 148">
  <circle fill="#CD582C" cx="74" cy="74" r="74"/>
  <circle fill="#F7941E" stroke="#92D4F4" stroke-width="2" stroke-miterlimit="10" cx="74" cy="74" r="70.5"/>
  <radialGradient id="a" cx="74" cy="74" r="69.586" gradientUnits="userSpaceOnUse">
    <stop offset="0" stop-color="#F9ED32"/>
    <stop offset=".214" stop-color="#F8D72C"/>
    <stop offset=".75" stop-color="#F7A621"/>
    <stop offset="1" stop-color="#F7941E"/>
  </radialGradient>
  <path fill="url(#a)" d="M74 4.4l2.7 48.9L92 6.8 82 54.7l26.8-41-22.1 43.7 36.5-32.6-32.6 36.5 43.7-22.1-41 26.8 47.9-10-46.5 15.3 48.9 2.7-48.9 2.7L141.2 92 93.3 82l41 26.8-43.7-22.1 32.6 36.5-36.5-32.6 22.1 43.7-26.8-41 10 47.9-15.3-46.5-2.7 48.9-2.7-48.9L56 141.2l10-47.9-26.8 41 22.1-43.7-36.5 32.6 32.6-36.5-43.7 22.1 41-26.8L6.8 92l46.5-15.3L4.4 74l48.9-2.7L6.8 56l47.9 10-41-26.8 43.7 22.1-32.6-36.5 36.5 32.6-22.1-43.7 26.8 41L56 6.8l15.3 46.5"/>
  <path d="M89.1 27.9s-1.6 1.3-1.8 3.4C87 33.4 86 37 87.2 40c2 5 4.9 8.7 4.9 8.7s2.9 4.7 4.8 6.3c1.8 1.6 5.8 6.3 5.8 11.6 0 2.9-.3 9.5-1.1 11.6-.8 2.1.2 8.1-2.6 11-2.8 2.9-5 4.7-5.5 6-.5 1.3-5.3 4.2-6.6 6-1.3 1.8-7.1 8.4-7.1 8.4l-1.3 12.3 2.6 2.9 6.6 1.3 2.8.4s-4.2.7-1.5 1.5 2.9 1.8 2.9 1.8l-6-.5 1.6 2.9h-1.8c-1.8 0-5.3-3.2-5.3-3.2s-7.1-1.8-7.1-3.2c0-1.3 1.6-1.6 1.6-2.9 0-2.8 1.3-.2 1.1-12.1 0 0-2.9-2.1-4.5-.8s-1.6 2.9-5 3.4-9.2-.3-9.2-.3-1.3 7.1-1.6 8.1c-.3 1.1 0 2.9 0 2.9l2.4 1s5.4 1.1 7.5 1.3c2.1.3 5.6 2.6 5.6 2.6s-3.9-.3-2.9 2.9c.4 1.1-5.8-3.2-5.8-1.6s1.1 1.6-1.1 1.6c-2.1 0-2.6-1.6-4.7-2.9-2.1-1.3-3.9-2.9-4.7-3.4-.8-.5-1.3-.8-1.3-2.1s1.6-2.4 1.8-4.7c.3-2.4 2.9-5.3 1.1-6.3-1.8-1.1-2.9-.3-7.1-3.9-4.2-3.7-1.8-3.9-5-8.7-3.2-4.7-1.3-8.1-7.1-8.4-20.8-1.1-9.5-4.2-10.8-4.5-1.3-.3-2.1-1.6-2.6-2.6-.5-1.1 1.1-1.6 7.9-.8 0 0 3.7-3.2 11.3-3.9 3-.3 6.3-4.2 11-6 4.7-1.8 8.9-1.6 14.4-4.8 4-2.3 12.2-4.7 12.2-4.7s6-5.3 5.3-8.1C82.3 53.2 79 46 79 46s-2.2-5.6-2.2-10.6.8-11.6 2.1-13.9c1.3-2.4 2.1-6 8.4-6.6 6.3-.5 8.7 3.7 8.7 3.7s.5 1.6 1.4 2.1c.8.5 11.1 1.3 10.2 3.6-.4 1 .3 1.1-1.3 1.8-1.6.8-7.4.5-8.9.5-1.8.2-8.3 1.3-8.3 1.3z"/>
</svg>